<svg xmlns="http://www.w3.org/2000/svg" viewBox="0 0 100 100" width="100" height="100">
  <!-- Outer ring -->
  <circle cx="50" cy="50" r="46" fill="#37474F" stroke="#546E7A" stroke-width="3"/>
  <circle cx="50" cy="50" r="40" fill="#263238"/>
  <!-- Tick marks -->
  <g stroke="#90A4AE" stroke-width="2">
    <line x1="50" y1="12" x2="50" y2="20"/>
    <line x1="50" y1="80" x2="50" y2="88"/>
    <line x1="12" y1="50" x2="20" y2="50"/>
    <line x1="80" y1="50" x2="88" y2="50"/>
    <line x1="22" y1="22" x2="28" y2="28"/>
    <line x1="72" y1="72" x2="78" y2="78"/>
    <line x1="22" y1="78" x2="28" y2="72"/>
    <line x1="72" y1="22" x2="78" y2="28"/>
  </g>
  <!-- Colored arc -->
  <path d="M 18 68 A 36 36 0 1 1 82 68" fill="none" stroke="#4CAF50" stroke-width="5" stroke-linecap="round"/>
  <!-- Needle -->
  <line x1="50" y1="50" x2="70" y2="25" stroke="#F44336" stroke-width="3" stroke-linecap="round"/>
  <circle cx="50" cy="50" r="5" fill="#78909C"/>
  <circle cx="50" cy="50" r="2" fill="#263238"/>
  <!-- Label -->
  <text x="50" y="72" font-size="8" text-anchor="middle" fill="#90A4AE">MPa</text>
</svg>
